<svg id="图层_1" data-name="图层 1" xmlns="http://www.w3.org/2000/svg" viewBox="0 0 503.9 693.65"><defs><style>.cls-1{fill:#f6d2a2;}.cls-2{fill:#010101;}.cls-3{fill:#c7b199;}.cls-4{fill:#74cddd;}.cls-5{fill:#fff;}.cls-6{fill:#231f20;}.cls-7{fill:#f7df1e;}</style></defs><path class="cls-1" d="M622.55,723c.75,15.73,16.51,8.32,23.36,3.5s8.25-.75,9.24-10a152.51,152.51,0,0,0,.74-18.14,43.89,43.89,0,0,0-29.46,7.58c-4.29,3.16-12.29,13.14-4,16.64" transform="translate(-563.92 -435.26)"/><path class="cls-2" d="M630.64,734.38a9.86,9.86,0,0,1-4.46-1,10.33,10.33,0,0,1-5.11-9.15,6.82,6.82,0,0,1-3.72-5.41A19.15,19.15,0,0,1,625.61,705a45.11,45.11,0,0,1,30.45-7.82h1.23v1.25a107.14,107.14,0,0,1-.41,14.22v4.16c-.41,6.49-1.65,7.49-5,8.32a18.35,18.35,0,0,0-4.95,2.42A33.6,33.6,0,0,1,630.64,734.38Zm21-34.36a40.92,40.92,0,0,0-24.26,7.49,16.63,16.63,0,0,0-6.93,11.15,4.14,4.14,0,0,0,2.8,3.41H624V723a8.35,8.35,0,0,0,3.46,7.49,21.5,21.5,0,0,0,17.58-5.16,21.14,21.14,0,0,1,5.61-2.83c2.15-.75,2.64-.91,3-6.07v-4.16a118.25,118.25,0,0,0,.5-12.48H651.6Z" transform="translate(-563.92 -435.26)"/><path class="cls-3" d="M622.55,723a12.24,12.24,0,0,0,6.19-3.49" transform="translate(-563.92 -435.26)"/><path class="cls-2" d="M622.55,724.48a1.52,1.52,0,0,1-.91-2.91h1a8.88,8.88,0,0,0,4.53-2.67,1.51,1.51,0,0,1,2.11-.29,1.53,1.53,0,0,1,.29,2.13h0a11.64,11.64,0,0,1-5.94,3.66h-1.08Z" transform="translate(-563.92 -435.26)"/><path class="cls-4" d="M658.53,535.87c-59.66-16.64-15.26-93.44,33-62Z" transform="translate(-563.92 -435.26)"/><path class="cls-2" d="M659.27,537.61h-1.15c-17-4.82-27.48-15-29.46-28.53A39.93,39.93,0,0,1,692,473l1.16.75Zm8.26-69.72a34.78,34.78,0,0,0-19.07,5.74,36.88,36.88,0,0,0-17.08,34.7c1.82,12.06,11.06,21.21,26.16,25.79l31.36-59.66a41.13,41.13,0,0,0-21.13-6.32Z" transform="translate(-563.92 -435.26)"/><path class="cls-4" d="M923.59,468.14c47.2-33.28,89.86,41.6,35,61Z" transform="translate(-563.92 -435.26)"/><path class="cls-2" d="M957.91,531l-36.3-63.23,1.07-.75A38.68,38.68,0,0,1,966,463.32a40.41,40.41,0,0,1,19.72,37.27c-.82,8.32-5.28,22.55-26.65,29.95Zm-32.34-62.4,33.66,58.74a32.43,32.43,0,0,0,23.52-27,37.35,37.35,0,0,0-18.23-34.53,34.84,34.84,0,0,0-38.95,2.75Z" transform="translate(-563.92 -435.26)"/><path class="cls-1" d="M933.74,916.34c12,7.48,33.91,30.12,15.92,41.1-17.24,16-27-17.56-42.17-22.13A42,42,0,0,1,933.74,916.34Z" transform="translate(-563.92 -435.26)"/><path class="cls-2" d="M940.5,963.18h-.66c-6.85-.42-12.46-7.16-17.9-13.56a38.62,38.62,0,0,0-14.86-12.9l-2-.58,1.24-2.08a43.84,43.84,0,0,1,27.15-19.55h1.07c7.68,4.82,23.52,18.8,23.44,31.45A13.91,13.91,0,0,1,950.57,958,14.93,14.93,0,0,1,940.5,963.18Zm-30.7-28.62a47.38,47.38,0,0,1,14.28,13.06,28.78,28.78,0,0,0,15.84,12.56,11.74,11.74,0,0,0,8.26-3.91,11,11,0,0,0,6.1-9.65c0-10.15-12.7-22.88-21.53-28.62a38.79,38.79,0,0,0-22.86,16.56Z" transform="translate(-563.92 -435.26)"/><path class="cls-2" d="M949.66,959a1.51,1.51,0,0,1-1.32-.83,57.87,57.87,0,0,1-2.31-5.66,24.93,24.93,0,0,0-5.45-10.15,1.51,1.51,0,0,1,0-2.12,1.48,1.48,0,0,1,2.11,0,27.42,27.42,0,0,1,6.1,11,53.84,53.84,0,0,0,2.23,5.32,1.5,1.5,0,0,1-.66,2Z" transform="translate(-563.92 -435.26)"/><path class="cls-1" d="M719.43,941.88c-14.11,2.16-22,15-33.75,21.46a10.17,10.17,0,0,1-14.46-.58,10.28,10.28,0,0,1-2-3.33,5.33,5.33,0,0,1-4.29-2c-10.24-16.64,10.64-28.21,21.62-36.36,15.43-3,24.92,10.23,32.92,20.8Z" transform="translate(-563.92 -435.26)"/><path class="cls-2" d="M678.25,967.34a9.72,9.72,0,0,1-2.64,0,12.26,12.26,0,0,1-7.18-6.24,5,5,0,0,1-4-2.16c-9.9-15.73,6.93-27.63,18.07-35.53l3.88-2.83c15.6-3.16,25.5,9.82,33.42,20.3l2.23,3h-2.48a42.46,42.46,0,0,0-20.87,12.06,75.85,75.85,0,0,1-12.38,9.32A16.52,16.52,0,0,1,678.25,967.34Zm-9.9-9.65a3.89,3.89,0,0,1,1.73,0h.42l.66,1.33a9.55,9.55,0,0,0,5.53,5.07,11.23,11.23,0,0,0,8.25-2,73.21,73.21,0,0,0,12-9,49.44,49.44,0,0,1,19.89-12.23c-7.59-10-16.5-20.8-29.46-18.3l-3.71,2.66c-11.39,8.32-25.5,18.14-17.33,31.37a2.4,2.4,0,0,0,1.73,1.16Z" transform="translate(-563.92 -435.26)"/><path class="cls-2" d="M669.42,961a1.49,1.49,0,0,1-1.56-1.41,1.32,1.32,0,0,1,.08-.59,22.94,22.94,0,0,1,4.78-10.9,34.77,34.77,0,0,0,3.14-5.24,1.48,1.48,0,0,1,2-.75,1.51,1.51,0,0,1,.74,2,37.57,37.57,0,0,1-3.38,5.74,20.25,20.25,0,0,0-4,9.73,1.49,1.49,0,0,1-1.55,1.43ZM661,514.73c-8.26-4.16-13.62-9.9-8.83-19.05s12.71-7.57,20.63-3.41Zm285.1-8c8.26-4.16,13.62-9.9,8.83-19.06s-12.7-7.57-20.63-3.41Z" transform="translate(-563.92 -435.26)"/><path class="cls-1" d="M1000.33,721c-.74,15.73-16.5,8.32-23.35,3.5s-8.26-.75-9.25-10a154.83,154.83,0,0,1-.74-18.14,43.89,43.89,0,0,1,29.46,7.57c4.29,3.16,12.3,13.14,4,16.64" transform="translate(-563.92 -435.26)"/><path class="cls-2" d="M992.24,732.05a33.56,33.56,0,0,1-15.76-6,18.32,18.32,0,0,0-5-2.41c-3.3-1.17-4.54-2.17-4.95-8.32v-4.16a107.29,107.29,0,0,1-.41-14.23v-2h1.23a45.11,45.11,0,0,1,30.45,7.82,19.17,19.17,0,0,1,8.26,13.82,6.81,6.81,0,0,1-3.72,5.4,10.35,10.35,0,0,1-5.11,9.16,9.94,9.94,0,0,1-5,.91Zm-24-34.28a118.14,118.14,0,0,0,.49,12.48v4.16c0,5.08.75,5.24,3,6.08a21.32,21.32,0,0,1,5.62,2.82,21.4,21.4,0,0,0,17.57,5.16,8.36,8.36,0,0,0,3.47-7.49v-1h.82a4.17,4.17,0,0,0,2.81-3.41,16.63,16.63,0,0,0-6.93-11.15,41.87,41.87,0,0,0-26.82-7.66Z" transform="translate(-563.92 -435.26)"/><path class="cls-3" d="M1000.33,721a12.22,12.22,0,0,1-6.19-3.24" transform="translate(-563.92 -435.26)"/><path class="cls-2" d="M1000.33,722.48h-1.57a11.48,11.48,0,0,1-5.77-4.16,1.51,1.51,0,1,1,2.39-1.83,8.78,8.78,0,0,0,4.54,2.66h1a1.7,1.7,0,0,1,1.36,2A1.68,1.68,0,0,1,1000.33,722.48Z" transform="translate(-563.92 -435.26)"/><path class="cls-4" d="M805.5,436.36c59.74,0,115.53,8.32,144.9,66.56,26.16,64.81,16.51,134.78,20.88,203.26,3.47,58.82,11.06,126.79-16,181.37C927,944.79,855.51,959,796.92,957.1c-46-1.66-101.67-16.64-127.66-59.23C638.73,848,653.17,774.07,655.4,718.74c2.64-65.56-17.66-131.37,3.71-195.6,22.2-66.56,81.94-81.62,146.31-86.78" transform="translate(-563.92 -435.26)"/><path class="cls-2" d="M807.07,959H796.83A216.17,216.17,0,0,1,725,944.54a115.13,115.13,0,0,1-57-45.51c-24.76-40.27-20.3-95.84-16.51-144.93,1-12.32,1.9-24.05,2.32-35a569.59,569.59,0,0,0-3-69.72c-3.46-41.6-7.09-84.61,6.77-126.3a110.16,110.16,0,0,1,57.77-67.3c22.28-11,49.51-17.31,89.53-20.47,58.92-.42,117,7.9,146.89,66.89,19.14,47.42,19.39,98.34,19.72,147.6,0,18.47,0,37.52,1.32,56.16,0,5.65.66,11.39,1.07,17.13,3.47,54,7.43,115.32-17.25,164.91C925.73,950,848.16,959,807.07,959ZM805.5,437.86c-62.14,5.32-122.71,18.8-145,85.78-13.7,41.1-10.07,83.78-6.68,124.79a573.14,573.14,0,0,1,3,70.06c-.41,11.06-1.4,22.8-2.31,35.19-3.8,48.59-8.25,103.75,15.92,143.11,10.15,16.64,42.83,55.49,126.51,58.23,36.22,1.34,123.78-2.82,156.79-68.88C978,837.21,974.09,776.4,970.62,722.73c0-5.82-.74-11.56-1.07-17.14-.91-18.13-1.32-37.27-1.32-55.74,0-48.92-.5-99.84-19.48-146.43a106.45,106.45,0,0,0-60.15-54.16A244.67,244.67,0,0,0,805.5,437.86Z" transform="translate(-563.92 -435.26)"/><path class="cls-5" d="M816,517.15C826.71,580,928.54,563.41,913.93,500c-13.12-56.83-101.5-41.1-97.95,17.14" transform="translate(-563.92 -435.26)"/><path class="cls-2" d="M864.42,558.16a56.64,56.64,0,0,1-18.65-3.07,46.42,46.42,0,0,1-31.19-37.69,48.17,48.17,0,0,1,12.87-36.94,56,56,0,0,1,33-16.64,52.4,52.4,0,0,1,33.5,5.82,45.35,45.35,0,0,1,21.37,30,44.17,44.17,0,0,1-12.7,44.6,57.48,57.48,0,0,1-38.21,13.89Zm-47-41.18a43.6,43.6,0,0,0,29.3,35.36,56,56,0,0,0,54-10.32,41.82,41.82,0,0,0,11.8-41.6A44.08,44.08,0,0,0,861,466.64,47.89,47.89,0,0,0,817.46,517Z" transform="translate(-563.92 -435.26)"/><path class="cls-5" d="M694.26,527.38C708.13,582,794.94,568,791.72,513.15c-3.88-65.72-110.74-53.33-97.46,14.23" transform="translate(-563.92 -435.26)"/><path class="cls-2" d="M740.64,563.41a53,53,0,0,1-25.33-6.24,45.34,45.34,0,0,1-22.37-29.54,46.07,46.07,0,0,1,15.52-47,58.2,58.2,0,0,1,58.26-7.49,44.44,44.44,0,0,1,26.4,39.94c1.73,29.12-21.21,46.09-43.16,49.92a60.48,60.48,0,0,1-9.32.42Zm-44.73-36.36a45.05,45.05,0,0,0,53.89,33.28c20.79-3.33,42.5-19.31,40.85-46.68a41.61,41.61,0,0,0-24.76-37.6,55.31,55.31,0,0,0-55.37,7.15,43.38,43.38,0,0,0-14.61,43.85Z" transform="translate(-563.92 -435.26)"/><path class="cls-5" d="M827.94,592.94a141.57,141.57,0,0,1,0,26,16.4,16.4,0,0,1-9.65,6,14.22,14.22,0,0,1-10.81-8.32,186.86,186.86,0,0,1,.74-29.45Z" transform="translate(-563.92 -435.26)"/><path class="cls-2" d="M819.2,626.22h-.41a15.61,15.61,0,0,1-12-9.4,99,99,0,0,1,0-20.22c0-3.08.49-6.32.58-9.48v-2.5l22.28,6.91v1.41a57.72,57.72,0,0,0,.41,8.32,71.4,71.4,0,0,1,0,17.89v.41a12.37,12.37,0,0,1-7.84,5.66l-2.56,1Zm-9.57-10.48a12.6,12.6,0,0,0,9.24,7.4l2.31-.91a9.93,9.93,0,0,0,6-4.33,70.17,70.17,0,0,0,0-16.64,46.38,46.38,0,0,0-.41-7.57l-16.5-5.08a39.05,39.05,0,0,1-.5,7.66,97.31,97.31,0,0,0-.25,19.38Z" transform="translate(-563.92 -435.26)"/><ellipse class="cls-2" cx="154.27" cy="83.13" rx="14.69" ry="16.06"/><ellipse class="cls-5" cx="160.95" cy="86.79" rx="3.47" ry="4.08"/><ellipse class="cls-2" cx="277.22" cy="79.14" rx="14.44" ry="16.06"/><ellipse class="cls-5" cx="283.74" cy="82.8" rx="3.38" ry="4.08"/><path class="cls-5" d="M786.68,591.69c-6.43,15.64,3.55,46.93,21,23.88a185.67,185.67,0,0,1,.74-29.45Z" transform="translate(-563.92 -435.26)"/><path class="cls-2" d="M795.68,625.31a8.22,8.22,0,0,1-4.29-1.17c-7-4.08-11.39-20.8-6.44-33.28v-.66l24.76-6.33v2a52.16,52.16,0,0,1-.58,9.57,96.11,96.11,0,0,0,0,19.63v1.08A17.41,17.41,0,0,1,795.68,625.31Zm-8.17-32.37c-3.55,9.74-.74,25,5.45,28.54,4.45,2.58,9.4-1.92,12.87-6.41a102.18,102.18,0,0,1,0-19.63,38.86,38.86,0,0,1,.49-7.49Z" transform="translate(-563.92 -435.26)"/><path class="cls-1" d="M788.58,561.57a19.1,19.1,0,0,0-15.51,26.63c8.25,15,26.57-1.33,38,0,13.12,0,23.93,14,34.49,2.49,11.72-12.81-5-25-18.15-30.86Z" transform="translate(-563.92 -435.26)"/><path class="cls-6" d="M836.2,597a32.75,32.75,0,0,1-12.05-3.41,35.82,35.82,0,0,0-13-3.66,32.73,32.73,0,0,0-13.7,3c-9.24,3.25-19.72,6.91-25.66-3.83a18.08,18.08,0,0,1,0-17.47,21.13,21.13,0,0,1,16.5-11.4l39.69-1.74c9.74,4.16,20.88,11.73,22.78,20.55a15.86,15.86,0,0,1-13.52,17.86c-.33.05-.67.08-1,.11ZM811.44,587a38.65,38.65,0,0,1,14,3.91c7.43,3.16,13.29,5.58,19.23-.91a11.14,11.14,0,0,0,3.38-10.07c-1.65-7.66-12.13-14.64-20.71-18.31L789,563.16A18.31,18.31,0,0,0,775,573a15.18,15.18,0,0,0,0,14.56c4.7,8.32,13.12,5.58,22.11,2.5A34.72,34.72,0,0,1,811.44,587Z" transform="translate(-563.92 -435.26)"/><path class="cls-2" d="M786.68,561c-.9-20.8,38.54-23.46,43.16-6S788.58,576.47,786.68,561Z" transform="translate(-563.92 -435.26)"/><path id="Path_9" data-name="Path 9" class="cls-7" d="M563.92,707.09h503.91v421.82H563.92Z" transform="translate(-563.92 -435.26)"/><path id="Path_10" data-name="Path 10" d="M841.33,1078.72l22.94-13.88c4.43,7.84,8.45,14.48,18.11,14.48,9.25,0,15.09-3.62,15.09-17.7V965.84h28.17V1062c0,29.17-17.1,42.45-42.06,42.45-22.53,0-35.61-11.67-42.25-25.75m99.61-3,22.94-13.28c6,9.86,13.88,17.1,27.77,17.1,11.67,0,19.11-5.84,19.11-13.88,0-9.66-7.64-13.08-20.52-18.72l-7-3c-20.33-8.65-33.81-19.51-33.81-42.45,0-21.13,16.1-37.23,41.25-37.23,17.91,0,30.79,6.24,40,22.54l-21.93,14.08c-4.83-8.65-10.06-12.07-18.11-12.07-8.25,0-13.48,5.23-13.48,12.07,0,8.45,5.23,11.88,17.3,17.11l7,3c24,10.26,37.43,20.72,37.43,44.26,0,25.36-19.92,39.24-46.68,39.24-26.16,0-43.06-12.47-51.31-28.77" transform="translate(-563.92 -435.26)"/></svg>
