<?xml version="1.0" standalone="no"?>
<!DOCTYPE svg PUBLIC "-//W3C//DTD SVG 1.1//EN" "http://www.w3.org/Graphics/SVG/1.1/DTD/svg11.dtd">
<svg t="1618282578107" class="icon" viewBox="0 0 1100 1300" version="1.1" xmlns="http://www.w3.org/2000/svg" p-id="2184" xmlns:xlink="http://www.w3.org/1999/xlink" width="200" height="200">
<defs>
<style type="text/css">
</style>
</defs>
<path d="M579.008 963.754667h-152.234667a16.277333 16.277333 0 0 1-16.192-14.549334l-5.994666-55.786666a391.509333 391.509333 0 0 1-102.272-43.605334l-42.176 33.984a16.234667 16.234667 0 0 1-21.738667-1.173333L130.773333 774.997333a16.298667 16.298667 0 0 1-1.173333-21.738666l35.221333-43.733334a391.061333 391.061333 0 0 1-41.536-103.146666l-53.845333-5.781334a16.298667 16.298667 0 0 1-14.549333-16.192v-152.234666c0-8.32 6.272-15.317333 14.549333-16.192l55.786667-5.994667a392.234667 392.234667 0 0 1 43.605333-102.272l-33.984-42.197333a16.277333 16.277333 0 0 1 1.173333-21.738667l107.626667-107.626667a16.298667 16.298667 0 0 1 21.738667-1.173333l43.733333 35.242667a390.186667 390.186667 0 0 1 103.146667-41.536l5.781333-53.845334a16.298667 16.298667 0 0 1 16.192-14.549333h152.234667c8.32 0 15.317333 6.272 16.192 14.549333l5.994666 55.786667a391.957333 391.957333 0 0 1 102.293334 43.605333l42.176-33.984a16.277333 16.277333 0 0 1 21.738666 1.173334l107.626667 107.626666a16.298667 16.298667 0 0 1 1.173333 21.738667l-35.221333 43.712a391.637333 391.637333 0 0 1 41.536 103.146667l53.845333 5.802666a16.298667 16.298667 0 0 1 14.549334 16.192v152.234667c0 8.32-6.272 15.317333-14.549334 16.192l-55.786666 5.994667a391.210667 391.210667 0 0 1-43.605334 102.272l33.984 42.176a16.277333 16.277333 0 0 1-1.173333 21.738666l-107.626667 107.626667a16.277333 16.277333 0 0 1-21.738666 1.173333l-43.712-35.221333a390.784 390.784 0 0 1-103.146667 41.536l-5.802667 53.845333a16.32 16.32 0 0 1-16.213333 14.549334z m-137.578667-32.597334h122.944l5.482667-50.816a16.256 16.256 0 0 1 12.8-14.186666 359.168 359.168 0 0 0 114.304-45.994667 16.277333 16.277333 0 0 1 18.794667 1.173333l41.152 33.173334 86.933333-86.933334-32.085333-39.829333a16.298667 16.298667 0 0 1-0.981334-19.093333 359.466667 359.466667 0 0 0 48.362667-113.322667 16.32 16.32 0 0 1 14.122667-12.458667l52.544-5.653333v-122.944l-50.816-5.482667a16.277333 16.277333 0 0 1-14.186667-12.8 359.253333 359.253333 0 0 0-45.994667-114.304 16.256 16.256 0 0 1 1.173334-18.794666l33.173333-41.152-86.933333-86.933334-39.829334 32.085334a16.298667 16.298667 0 0 1-19.093333 0.981333 358.485333 358.485333 0 0 0-113.322667-48.362667 16.32 16.32 0 0 1-12.458666-14.122666l-5.653334-52.544h-122.944l-5.461333 50.816a16.277333 16.277333 0 0 1-12.8 14.186666 359.253333 359.253333 0 0 0-114.304 45.994667 16.256 16.256 0 0 1-18.816-1.173333l-41.173333-33.194667-86.933334 86.933333 32.085334 39.829334a16.298667 16.298667 0 0 1 0.981333 19.093333 359.466667 359.466667 0 0 0-48.362667 113.322667 16.32 16.32 0 0 1-14.122666 12.458666l-52.544 5.696v122.944l50.816 5.461334a16.256 16.256 0 0 1 14.186666 12.8 358.869333 358.869333 0 0 0 45.994667 114.304 16.256 16.256 0 0 1-1.173333 18.794666l-33.173334 41.173334 86.933334 86.933333 39.829333-32.085333a16.298667 16.298667 0 0 1 19.093333-0.981334 358.890667 358.890667 0 0 0 113.322667 48.362667c6.72 1.578667 11.712 7.253333 12.458667 14.122667l5.674666 52.522666z m65.194667-206.293333c-117.376 0-212.864-95.488-212.864-212.864 0-117.354667 95.488-212.842667 212.864-212.842667 117.354667 0 212.864 95.488 212.864 212.842667 0 117.376-95.488 212.864-212.864 212.864z m0-393.130667c-99.413333 0-180.266667 80.874667-180.266667 180.266667 0 99.413333 80.874667 180.266667 180.266667 180.266667 99.392 0 180.266667-80.874667 180.266667-180.266667 0-99.392-80.874667-180.266667-180.266667-180.266667z" p-id="2185">
</path>
<text x="150" y="1100" fill="bleak" font-size="100">@seasonjs/tools</text>
</svg>
